<svg id="visual" viewBox="0 0 960 540" width="960" height="540" xmlns="http://www.w3.org/2000/svg" xmlns:xlink="http://www.w3.org/1999/xlink" version="1.1"><rect x="0" y="0" width="960" height="540" fill="#3f1380"></rect><path d="M0 320L26.7 319.3C53.3 318.7 106.7 317.3 160 325.8C213.3 334.3 266.7 352.7 320 353.3C373.3 354 426.7 337 480 340.5C533.3 344 586.7 368 640 376.5C693.3 385 746.7 378 800 379.5C853.3 381 906.7 391 933.3 396L960 401L960 541L933.3 541C906.7 541 853.3 541 800 541C746.7 541 693.3 541 640 541C586.7 541 533.3 541 480 541C426.7 541 373.3 541 320 541C266.7 541 213.3 541 160 541C106.7 541 53.3 541 26.7 541L0 541Z" fill="#b2bb34"></path><path d="M0 355L26.7 355.2C53.3 355.3 106.7 355.7 160 355.2C213.3 354.7 266.7 353.3 320 357.8C373.3 362.3 426.7 372.7 480 376.3C533.3 380 586.7 377 640 369.2C693.3 361.3 746.7 348.7 800 347.2C853.3 345.7 906.7 355.3 933.3 360.2L960 365L960 541L933.3 541C906.7 541 853.3 541 800 541C746.7 541 693.3 541 640 541C586.7 541 533.3 541 480 541C426.7 541 373.3 541 320 541C266.7 541 213.3 541 160 541C106.7 541 53.3 541 26.7 541L0 541Z" fill="#c4a222"></path><path d="M0 441L26.7 435.8C53.3 430.7 106.7 420.3 160 412.5C213.3 404.7 266.7 399.3 320 397.2C373.3 395 426.7 396 480 403.8C533.3 411.7 586.7 426.3 640 425.2C693.3 424 746.7 407 800 395.5C853.3 384 906.7 378 933.3 375L960 372L960 541L933.3 541C906.7 541 853.3 541 800 541C746.7 541 693.3 541 640 541C586.7 541 533.3 541 480 541C426.7 541 373.3 541 320 541C266.7 541 213.3 541 160 541C106.7 541 53.3 541 26.7 541L0 541Z" fill="#cf8823"></path><path d="M0 397L26.7 405.3C53.3 413.7 106.7 430.3 160 438.3C213.3 446.3 266.7 445.7 320 445.5C373.3 445.3 426.7 445.7 480 447.2C533.3 448.7 586.7 451.3 640 449.5C693.3 447.7 746.7 441.3 800 434.7C853.3 428 906.7 421 933.3 417.5L960 414L960 541L933.3 541C906.7 541 853.3 541 800 541C746.7 541 693.3 541 640 541C586.7 541 533.3 541 480 541C426.7 541 373.3 541 320 541C266.7 541 213.3 541 160 541C106.7 541 53.3 541 26.7 541L0 541Z" fill="#d46d30"></path><path d="M0 478L26.7 472.5C53.3 467 106.7 456 160 451.8C213.3 447.7 266.7 450.3 320 456.8C373.3 463.3 426.7 473.7 480 473.3C533.3 473 586.7 462 640 461.8C693.3 461.7 746.7 472.3 800 477.8C853.3 483.3 906.7 483.7 933.3 483.8L960 484L960 541L933.3 541C906.7 541 853.3 541 800 541C746.7 541 693.3 541 640 541C586.7 541 533.3 541 480 541C426.7 541 373.3 541 320 541C266.7 541 213.3 541 160 541C106.7 541 53.3 541 26.7 541L0 541Z" fill="#d15341"></path><path d="M0 466L26.7 466C53.3 466 106.7 466 160 471C213.3 476 266.7 486 320 488.5C373.3 491 426.7 486 480 487.5C533.3 489 586.7 497 640 497.2C693.3 497.3 746.7 489.7 800 481.7C853.3 473.7 906.7 465.3 933.3 461.2L960 457L960 541L933.3 541C906.7 541 853.3 541 800 541C746.7 541 693.3 541 640 541C586.7 541 533.3 541 480 541C426.7 541 373.3 541 320 541C266.7 541 213.3 541 160 541C106.7 541 53.3 541 26.7 541L0 541Z" fill="#c63b52"></path><path d="M0 492L26.7 494.7C53.3 497.3 106.7 502.7 160 506.3C213.3 510 266.7 512 320 510.8C373.3 509.7 426.7 505.3 480 505C533.3 504.7 586.7 508.3 640 506.8C693.3 505.3 746.7 498.7 800 498.8C853.3 499 906.7 506 933.3 509.5L960 513L960 541L933.3 541C906.7 541 853.3 541 800 541C746.7 541 693.3 541 640 541C586.7 541 533.3 541 480 541C426.7 541 373.3 541 320 541C266.7 541 213.3 541 160 541C106.7 541 53.3 541 26.7 541L0 541Z" fill="#b32962"></path></svg>